<?xml version="1.0" encoding="iso-8859-1"?>
<!-- Generator: Adobe Illustrator 19.0.0, SVG Export Plug-In . SVG Version: 6.00 Build 0)  -->
<svg version="1.1" id="Layer_1" xmlns="http://www.w3.org/2000/svg" xmlns:xlink="http://www.w3.org/1999/xlink" x="0px" y="0px"
	 viewBox="0 0 512.001 512.001" style="enable-background:new 0 0 512.001 512.001;" xml:space="preserve">
<polygon style="fill:#efff81;" points="502.099,198.218 426.634,67.508 332.951,121.595 332.951,17.381 182.019,17.381 
	182.019,125.025 85.368,69.223 9.901,199.933 103.584,254.02 13.332,306.128 88.797,436.838 182.019,383.016 182.019,494.62 
	332.951,494.62 332.951,386.445 423.204,438.553 498.669,307.842 405.446,254.02 "/>
<path d="M332.951,504.522H182.019c-5.467,0-9.901-4.434-9.901-9.901v-94.455l-78.37,45.247c-4.735,2.736-10.79,1.112-13.525-3.624
	L4.758,311.078c-2.735-4.736-1.112-10.79,3.624-13.525l75.4-43.533L4.951,208.507c-2.274-1.313-3.934-3.475-4.613-6.012
	c-0.68-2.537-0.324-5.239,0.989-7.513l75.466-130.71c2.735-4.736,8.787-6.358,13.525-3.624l81.8,47.227V17.381
	c0-5.467,4.434-9.901,9.901-9.901h150.933c5.467,0,9.901,4.434,9.901,9.901v87.066l78.83-45.513
	c4.737-2.735,10.79-1.11,13.525,3.624l75.466,130.71c1.313,2.274,1.669,4.976,0.989,7.513c-0.68,2.538-2.339,4.699-4.613,6.012
	l-81.801,47.228l78.37,45.248c4.736,2.735,6.359,8.789,3.624,13.525l-75.465,130.71c-1.313,2.274-3.475,3.934-6.012,4.613
	c-2.538,0.681-5.24,0.324-7.513-0.989l-75.4-43.533v91.026C342.852,500.088,338.419,504.522,332.951,504.522z M191.921,484.719
	h131.13v-98.274c0-3.537,1.887-6.806,4.951-8.574c3.063-1.769,6.838-1.769,9.901,0l81.677,47.157l65.564-113.56l-84.648-48.872
	c-3.063-1.768-4.951-5.038-4.951-8.574s1.887-6.806,4.951-8.574l88.078-50.852L423.01,81.033l-85.107,49.137
	c-3.063,1.769-6.838,1.769-9.901,0c-3.063-1.768-4.951-5.038-4.951-8.574V27.282h-131.13v97.743c0,3.537-1.887,6.806-4.951,8.574
	c-3.063,1.769-6.838,1.769-9.901,0L88.991,82.748L23.426,196.309l85.108,49.137c3.063,1.768,4.951,5.038,4.951,8.574
	c0,3.537-1.887,6.806-4.951,8.574l-81.677,47.157l65.564,113.56l84.648-48.871c3.063-1.769,6.838-1.769,9.901,0
	c3.063,1.768,4.951,5.038,4.951,8.574V484.719z"/>
<path d="M213.92,143.126c-5.467,0-9.901-4.434-9.901-9.901V86.689c0-5.467,4.434-9.901,9.901-9.901s9.901,4.434,9.901,9.901v46.536
	C223.821,138.693,219.388,143.126,213.92,143.126z"/>
<path d="M213.92,65.897c-5.467,0-9.901-4.434-9.901-9.901v-5.941c0-5.467,4.434-9.901,9.901-9.901s9.901,4.434,9.901,9.901v5.941
	C223.821,61.463,219.388,65.897,213.92,65.897z"/>
<g>
</g>
<g>
</g>
<g>
</g>
<g>
</g>
<g>
</g>
<g>
</g>
<g>
</g>
<g>
</g>
<g>
</g>
<g>
</g>
<g>
</g>
<g>
</g>
<g>
</g>
<g>
</g>
<g>
</g>
</svg>
